<mxfile host="app.diagrams.net" modified="2024-05-14T13:31:45.729Z" agent="Mozilla/5.0 (Windows NT 10.0; Win64; x64) AppleWebKit/537.36 (KHTML, like Gecko) Chrome/124.0.0.0 Safari/537.36 Edg/124.0.0.0" etag="72UiYEwOQpeuUUtLmb0w" version="24.4.0" type="github">
  <diagram name="第 1 页" id="bYXnYMIHJocZ52wJbgGg">
    <mxGraphModel dx="380" dy="463" grid="0" gridSize="10" guides="1" tooltips="1" connect="1" arrows="1" fold="1" page="0" pageScale="1" pageWidth="827" pageHeight="1169" math="0" shadow="0">
      <root>
        <mxCell id="0" />
        <mxCell id="1" parent="0" />
        <mxCell id="uxqai6tx9rbal9H1jR0x-1" style="edgeStyle=orthogonalEdgeStyle;rounded=0;orthogonalLoop=1;jettySize=auto;html=1;exitX=0.5;exitY=0.5;exitDx=0;exitDy=15;exitPerimeter=0;entryX=0.5;entryY=0;entryDx=0;entryDy=0;" edge="1" parent="1" source="uxqai6tx9rbal9H1jR0x-4" target="uxqai6tx9rbal9H1jR0x-6">
          <mxGeometry relative="1" as="geometry" />
        </mxCell>
        <mxCell id="uxqai6tx9rbal9H1jR0x-3" style="edgeStyle=orthogonalEdgeStyle;rounded=0;orthogonalLoop=1;jettySize=auto;html=1;exitX=0.5;exitY=0.5;exitDx=0;exitDy=15;exitPerimeter=0;entryX=0.5;entryY=0;entryDx=0;entryDy=0;" edge="1" parent="1" source="uxqai6tx9rbal9H1jR0x-4" target="uxqai6tx9rbal9H1jR0x-10">
          <mxGeometry relative="1" as="geometry" />
        </mxCell>
        <mxCell id="uxqai6tx9rbal9H1jR0x-4" value="开始" style="html=1;dashed=0;whiteSpace=wrap;shape=mxgraph.dfd.start" vertex="1" parent="1">
          <mxGeometry x="193" y="80" width="78" height="30" as="geometry" />
        </mxCell>
        <mxCell id="uxqai6tx9rbal9H1jR0x-5" style="edgeStyle=orthogonalEdgeStyle;rounded=0;orthogonalLoop=1;jettySize=auto;html=1;exitX=0.5;exitY=1;exitDx=0;exitDy=0;" edge="1" parent="1" source="uxqai6tx9rbal9H1jR0x-6" target="uxqai6tx9rbal9H1jR0x-12">
          <mxGeometry relative="1" as="geometry" />
        </mxCell>
        <mxCell id="uxqai6tx9rbal9H1jR0x-6" value="编辑预约信息" style="html=1;dashed=0;whiteSpace=wrap;" vertex="1" parent="1">
          <mxGeometry x="115" y="150" width="70" height="40" as="geometry" />
        </mxCell>
        <mxCell id="uxqai6tx9rbal9H1jR0x-9" style="edgeStyle=orthogonalEdgeStyle;rounded=0;orthogonalLoop=1;jettySize=auto;html=1;exitX=0.5;exitY=1;exitDx=0;exitDy=0;" edge="1" parent="1" source="uxqai6tx9rbal9H1jR0x-10" target="uxqai6tx9rbal9H1jR0x-21">
          <mxGeometry relative="1" as="geometry" />
        </mxCell>
        <mxCell id="uxqai6tx9rbal9H1jR0x-10" value="模糊查询" style="html=1;dashed=0;whiteSpace=wrap;" vertex="1" parent="1">
          <mxGeometry x="274" y="150" width="80" height="40" as="geometry" />
        </mxCell>
        <mxCell id="uxqai6tx9rbal9H1jR0x-11" style="edgeStyle=orthogonalEdgeStyle;rounded=0;orthogonalLoop=1;jettySize=auto;html=1;exitX=0.5;exitY=1;exitDx=0;exitDy=0;" edge="1" parent="1" source="uxqai6tx9rbal9H1jR0x-12" target="uxqai6tx9rbal9H1jR0x-17">
          <mxGeometry relative="1" as="geometry" />
        </mxCell>
        <mxCell id="uxqai6tx9rbal9H1jR0x-12" value="车位信息&lt;div&gt;表单&lt;/div&gt;" style="shape=parallelogram;perimeter=parallelogramPerimeter;whiteSpace=wrap;html=1;dashed=0;" vertex="1" parent="1">
          <mxGeometry x="98.5" y="220" width="103" height="30" as="geometry" />
        </mxCell>
        <mxCell id="uxqai6tx9rbal9H1jR0x-13" style="edgeStyle=orthogonalEdgeStyle;rounded=0;orthogonalLoop=1;jettySize=auto;html=1;exitX=0.5;exitY=1;exitDx=0;exitDy=0;entryX=0;entryY=0.5;entryDx=0;entryDy=0;" edge="1" parent="1" source="uxqai6tx9rbal9H1jR0x-17" target="uxqai6tx9rbal9H1jR0x-23">
          <mxGeometry relative="1" as="geometry">
            <mxPoint x="136" y="385" as="targetPoint" />
          </mxGeometry>
        </mxCell>
        <mxCell id="uxqai6tx9rbal9H1jR0x-14" value="Y" style="edgeLabel;html=1;align=center;verticalAlign=middle;resizable=0;points=[];" vertex="1" connectable="0" parent="uxqai6tx9rbal9H1jR0x-13">
          <mxGeometry x="-0.0588" relative="1" as="geometry">
            <mxPoint as="offset" />
          </mxGeometry>
        </mxCell>
        <mxCell id="uxqai6tx9rbal9H1jR0x-15" style="edgeStyle=orthogonalEdgeStyle;rounded=0;orthogonalLoop=1;jettySize=auto;html=1;exitX=1;exitY=0.5;exitDx=0;exitDy=0;" edge="1" parent="1" source="uxqai6tx9rbal9H1jR0x-17" target="uxqai6tx9rbal9H1jR0x-24">
          <mxGeometry relative="1" as="geometry">
            <mxPoint x="183.5" y="330" as="targetPoint" />
          </mxGeometry>
        </mxCell>
        <mxCell id="uxqai6tx9rbal9H1jR0x-16" value="N" style="edgeLabel;html=1;align=center;verticalAlign=middle;resizable=0;points=[];" vertex="1" connectable="0" parent="uxqai6tx9rbal9H1jR0x-15">
          <mxGeometry x="0.1856" y="-1" relative="1" as="geometry">
            <mxPoint as="offset" />
          </mxGeometry>
        </mxCell>
        <mxCell id="uxqai6tx9rbal9H1jR0x-17" value="修改请求成功" style="shape=rhombus;html=1;dashed=0;whiteSpace=wrap;perimeter=rhombusPerimeter;" vertex="1" parent="1">
          <mxGeometry x="104.25" y="280" width="91.5" height="40" as="geometry" />
        </mxCell>
        <mxCell id="uxqai6tx9rbal9H1jR0x-20" style="edgeStyle=orthogonalEdgeStyle;rounded=0;orthogonalLoop=1;jettySize=auto;html=1;exitX=0.5;exitY=1;exitDx=0;exitDy=0;entryX=0.5;entryY=0;entryDx=0;entryDy=0;" edge="1" parent="1" source="uxqai6tx9rbal9H1jR0x-21" target="uxqai6tx9rbal9H1jR0x-30">
          <mxGeometry relative="1" as="geometry" />
        </mxCell>
        <mxCell id="uxqai6tx9rbal9H1jR0x-21" value="查询表单" style="shape=parallelogram;perimeter=parallelogramPerimeter;whiteSpace=wrap;html=1;dashed=0;" vertex="1" parent="1">
          <mxGeometry x="262.5" y="220" width="103" height="30" as="geometry" />
        </mxCell>
        <mxCell id="uxqai6tx9rbal9H1jR0x-22" style="edgeStyle=orthogonalEdgeStyle;rounded=0;orthogonalLoop=1;jettySize=auto;html=1;exitX=0.5;exitY=1;exitDx=0;exitDy=0;" edge="1" parent="1" source="uxqai6tx9rbal9H1jR0x-23" target="uxqai6tx9rbal9H1jR0x-33">
          <mxGeometry relative="1" as="geometry" />
        </mxCell>
        <mxCell id="uxqai6tx9rbal9H1jR0x-23" value="更新预约列表" style="html=1;dashed=0;whiteSpace=wrap;" vertex="1" parent="1">
          <mxGeometry x="186.5" y="373" width="91" height="30" as="geometry" />
        </mxCell>
        <mxCell id="uxqai6tx9rbal9H1jR0x-24" value="错误提示" style="shape=parallelogram;perimeter=parallelogramPerimeter;whiteSpace=wrap;html=1;dashed=0;" vertex="1" parent="1">
          <mxGeometry x="187" y="325" width="79" height="30" as="geometry" />
        </mxCell>
        <mxCell id="uxqai6tx9rbal9H1jR0x-28" style="edgeStyle=orthogonalEdgeStyle;rounded=0;orthogonalLoop=1;jettySize=auto;html=1;exitX=0.5;exitY=1;exitDx=0;exitDy=0;entryX=1;entryY=0.5;entryDx=0;entryDy=0;" edge="1" parent="1" source="uxqai6tx9rbal9H1jR0x-30" target="uxqai6tx9rbal9H1jR0x-23">
          <mxGeometry relative="1" as="geometry" />
        </mxCell>
        <mxCell id="uxqai6tx9rbal9H1jR0x-29" value="Y" style="edgeLabel;html=1;align=center;verticalAlign=middle;resizable=0;points=[];" vertex="1" connectable="0" parent="uxqai6tx9rbal9H1jR0x-28">
          <mxGeometry x="-0.4768" y="-3" relative="1" as="geometry">
            <mxPoint as="offset" />
          </mxGeometry>
        </mxCell>
        <mxCell id="uxqai6tx9rbal9H1jR0x-30" value="查询请求成功" style="shape=rhombus;html=1;dashed=0;whiteSpace=wrap;perimeter=rhombusPerimeter;" vertex="1" parent="1">
          <mxGeometry x="265.75" y="280" width="96.5" height="40" as="geometry" />
        </mxCell>
        <mxCell id="uxqai6tx9rbal9H1jR0x-33" value="结束" style="html=1;dashed=0;whiteSpace=wrap;shape=mxgraph.dfd.start" vertex="1" parent="1">
          <mxGeometry x="192" y="420" width="80" height="30" as="geometry" />
        </mxCell>
      </root>
    </mxGraphModel>
  </diagram>
</mxfile>
